<svg id="Profile" xmlns="http://www.w3.org/2000/svg" width="45" height="45" viewBox="0 0 45 45">
  <path id="Profile-2" data-name="Profile" d="M-923.537,4819.676a22.356,22.356,0,0,0-6.59-15.91,22.353,22.353,0,0,0-15.91-6.589,22.352,22.352,0,0,0-15.91,6.589,22.356,22.356,0,0,0-6.59,15.91,22.351,22.351,0,0,0,6.567,15.886l0,0,.021.022a22.327,22.327,0,0,0,12.83,6.381l.046.006c.172.023.345.044.518.063l.107.012c.154.017.309.03.464.044l.148.013c.144.011.289.021.433.029l.17.011q.218.01.436.017l.162.006c.2,0,.4.008.6.008h.005c.2,0,.394,0,.59-.008l.173-.006c.142-.006.283-.01.424-.017l.182-.012q.21-.012.419-.028l.162-.014c.149-.013.3-.026.447-.042l.123-.013c.167-.019.332-.04.5-.062l.066-.008a22.313,22.313,0,0,0,12.337-5.913q.4-.373.772-.765l.111-.114c.063-.066.125-.135.188-.2s.142-.151.211-.228l.016-.018h0A22.336,22.336,0,0,0-923.537,4819.676Zm-7.625,14.824c-.068.069-.138.137-.208.2-.051.049-.1.1-.152.147a21.031,21.031,0,0,1-14.5,5.824h-.017a21.042,21.042,0,0,1-14.9-6.2l-.005,0a17.127,17.127,0,0,1,14.9-8.792h0a17.128,17.128,0,0,1,14.9,8.792Zm-22.374-17.823a7.508,7.508,0,0,1,7.5-7.5,7.508,7.508,0,0,1,7.5,7.5,7.508,7.508,0,0,1-7.5,7.5h0A7.508,7.508,0,0,1-953.536,4816.677Zm23.472,16.635a18.557,18.557,0,0,0-11.8-8.663,9.008,9.008,0,0,0,4.828-7.972,9.011,9.011,0,0,0-9-9,9.011,9.011,0,0,0-9,9,9.008,9.008,0,0,0,4.828,7.972,18.553,18.553,0,0,0-11.8,8.665,20.847,20.847,0,0,1-5.028-13.637,20.862,20.862,0,0,1,6.151-14.849,20.864,20.864,0,0,1,14.849-6.15,20.864,20.864,0,0,1,14.849,6.15,20.861,20.861,0,0,1,6.151,14.849A20.845,20.845,0,0,1-930.065,4833.312Z" transform="translate(968.537 -4797.177)" fill="#ccc"/>
</svg>
